<svg width="20" height="20" viewBox="0 0 20 20" fill="none" xmlns="http://www.w3.org/2000/svg">
<path d="M10 20C15.5228 20 20 15.5228 20 10C20 4.47715 15.5228 0 10 0C4.47715 0 0 4.47715 0 10C0 15.5228 4.47715 20 10 20Z" fill="#FFC84D"/>
<path d="M7.384 9.49779C8.05116 9.49779 8.59199 8.95695 8.59199 8.28979C8.59199 7.62263 8.05116 7.08179 7.384 7.08179C6.71684 7.08179 6.17599 7.62263 6.17599 8.28979C6.17599 8.95695 6.71684 9.49779 7.384 9.49779Z" fill="black"/>
<path d="M12.616 9.49779C13.2831 9.49779 13.824 8.95695 13.824 8.28979C13.824 7.62263 13.2831 7.08179 12.616 7.08179C11.9488 7.08179 11.408 7.62263 11.408 8.28979C11.408 8.95695 11.9488 9.49779 12.616 9.49779Z" fill="black"/>
<path d="M9.99889 13.6102C12.0595 13.6102 13.3332 12.825 14.0755 12.0868C14.2932 11.8702 14.6446 12.1353 14.4966 12.4045C13.7698 13.7245 12.2315 15.0702 9.99946 15.0702C7.76746 15.0702 6.22918 13.7245 5.50232 12.4045C5.35432 12.1353 5.70518 11.8696 5.92347 12.0868C6.66575 12.825 7.93889 13.6102 10 13.6102L9.99889 13.6102Z" fill="#FF6D00"/>
</svg>
