<svg width="85" height="20" viewBox="0 0 85 20" fill="none" xmlns="http://www.w3.org/2000/svg">
<g clip-path="url(#clip0_11_147)">
<path d="M24.26 17L21.46 11.8H21.04V17H17.12V2.9H23.3C24.4333 2.9 25.3933 3.1 26.18 3.5C26.9667 3.88667 27.56 4.42667 27.96 5.12C28.36 5.8 28.56 6.56667 28.56 7.42C28.56 8.38 28.2933 9.22667 27.76 9.96C27.24 10.68 26.4733 11.1933 25.46 11.5L28.64 17H24.26ZM21.04 9.12H22.98C23.5133 9.12 23.9133 8.99333 24.18 8.74C24.4467 8.48667 24.58 8.12 24.58 7.64C24.58 7.18667 24.44 6.83333 24.16 6.58C23.8933 6.31333 23.5 6.18 22.98 6.18H21.04V9.12ZM34.2627 6.04V8.34H38.7627V11.32H34.2627V13.86H39.3627V17H30.3427V2.9H39.3627V6.04H34.2627ZM40.8197 9.92C40.8197 8.53333 41.1064 7.3 41.6797 6.22C42.2664 5.12667 43.093 4.28 44.1597 3.68C45.2264 3.06667 46.453 2.76 47.8397 2.76C49.5997 2.76 51.0797 3.23333 52.2797 4.18C53.4797 5.11333 54.253 6.38667 54.5997 8H50.3797C50.1264 7.46667 49.773 7.06 49.3197 6.78C48.8797 6.5 48.3664 6.36 47.7797 6.36C46.873 6.36 46.1464 6.68667 45.5997 7.34C45.0664 7.98 44.7997 8.84 44.7997 9.92C44.7997 11.0133 45.0664 11.8867 45.5997 12.54C46.1464 13.18 46.873 13.5 47.7797 13.5C48.3664 13.5 48.8797 13.36 49.3197 13.08C49.773 12.8 50.1264 12.3933 50.3797 11.86H54.5997C54.253 13.4733 53.4797 14.7533 52.2797 15.7C51.0797 16.6333 49.5997 17.1 47.8397 17.1C46.453 17.1 45.2264 16.8 44.1597 16.2C43.093 15.5867 42.2664 14.74 41.6797 13.66C41.1064 12.5667 40.8197 11.32 40.8197 9.92ZM65.3759 14.7H60.3759L59.6159 17H55.4959L60.6359 2.9H65.1559L70.2759 17H66.1359L65.3759 14.7ZM64.3959 11.7L62.8759 7.14L61.3759 11.7H64.3959ZM82.6936 7.6C82.6936 8.45333 82.4936 9.23333 82.0936 9.94C81.7069 10.6333 81.1136 11.1933 80.3136 11.62C79.5269 12.0333 78.5603 12.24 77.4136 12.24H75.4736V17H71.5536V2.9H77.4136C78.5469 2.9 79.5069 3.1 80.2936 3.5C81.0936 3.9 81.6936 4.45333 82.0936 5.16C82.4936 5.86667 82.6936 6.68 82.6936 7.6ZM77.0336 9.12C78.1403 9.12 78.6936 8.61333 78.6936 7.6C78.6936 6.57333 78.1403 6.06 77.0336 6.06H75.4736V9.12H77.0336Z" fill="#121212"/>
<path d="M24.26 17L21.46 11.8H21.04V17H17.12V2.9H23.3C24.4333 2.9 25.3933 3.1 26.18 3.5C26.9667 3.88667 27.56 4.42667 27.96 5.12C28.36 5.8 28.56 6.56667 28.56 7.42C28.56 8.38 28.2933 9.22667 27.76 9.96C27.24 10.68 26.4733 11.1933 25.46 11.5L28.64 17H24.26ZM21.04 9.12H22.98C23.5133 9.12 23.9133 8.99333 24.18 8.74C24.4467 8.48667 24.58 8.12 24.58 7.64C24.58 7.18667 24.44 6.83333 24.16 6.58C23.8933 6.31333 23.5 6.18 22.98 6.18H21.04V9.12ZM34.2627 6.04V8.34H38.7627V11.32H34.2627V13.86H39.3627V17H30.3427V2.9H39.3627V6.04H34.2627ZM40.8197 9.92C40.8197 8.53333 41.1064 7.3 41.6797 6.22C42.2664 5.12667 43.093 4.28 44.1597 3.68C45.2264 3.06667 46.453 2.76 47.8397 2.76C49.5997 2.76 51.0797 3.23333 52.2797 4.18C53.4797 5.11333 54.253 6.38667 54.5997 8H50.3797C50.1264 7.46667 49.773 7.06 49.3197 6.78C48.8797 6.5 48.3664 6.36 47.7797 6.36C46.873 6.36 46.1464 6.68667 45.5997 7.34C45.0664 7.98 44.7997 8.84 44.7997 9.92C44.7997 11.0133 45.0664 11.8867 45.5997 12.54C46.1464 13.18 46.873 13.5 47.7797 13.5C48.3664 13.5 48.8797 13.36 49.3197 13.08C49.773 12.8 50.1264 12.3933 50.3797 11.86H54.5997C54.253 13.4733 53.4797 14.7533 52.2797 15.7C51.0797 16.6333 49.5997 17.1 47.8397 17.1C46.453 17.1 45.2264 16.8 44.1597 16.2C43.093 15.5867 42.2664 14.74 41.6797 13.66C41.1064 12.5667 40.8197 11.32 40.8197 9.92ZM65.3759 14.7H60.3759L59.6159 17H55.4959L60.6359 2.9H65.1559L70.2759 17H66.1359L65.3759 14.7ZM64.3959 11.7L62.8759 7.14L61.3759 11.7H64.3959ZM82.6936 7.6C82.6936 8.45333 82.4936 9.23333 82.0936 9.94C81.7069 10.6333 81.1136 11.1933 80.3136 11.62C79.5269 12.0333 78.5603 12.24 77.4136 12.24H75.4736V17H71.5536V2.9H77.4136C78.5469 2.9 79.5069 3.1 80.2936 3.5C81.0936 3.9 81.6936 4.45333 82.0936 5.16C82.4936 5.86667 82.6936 6.68 82.6936 7.6ZM77.0336 9.12C78.1403 9.12 78.6936 8.61333 78.6936 7.6C78.6936 6.57333 78.1403 6.06 77.0336 6.06H75.4736V9.12H77.0336Z" fill="#121212"/>
<path d="M12 5V15" stroke="url(#paint0_linear_11_147)" stroke-width="4" stroke-linecap="round" stroke-linejoin="round"/>
<path d="M3.33984 10L12.0001 15" stroke="url(#paint1_linear_11_147)" stroke-width="4" stroke-linecap="round" stroke-linejoin="round"/>
<path d="M12.0005 5L3.34023 10" stroke="url(#paint2_linear_11_147)" stroke-width="4" stroke-linecap="round" stroke-linejoin="round"/>
<mask id="mask0_11_147" style="mask-type:alpha" maskUnits="userSpaceOnUse" x="9" y="2" width="7" height="8">
<rect x="9" y="2" width="7" height="8" fill="#D9D9D9"/>
</mask>
<g mask="url(#mask0_11_147)">
<path d="M12 5V15" stroke="url(#paint3_linear_11_147)" stroke-width="4" stroke-linecap="round" stroke-linejoin="round"/>
</g>
<path d="M12 5V15" stroke="url(#paint4_linear_11_147)" stroke-width="4" stroke-linecap="round" stroke-linejoin="round"/>
<path d="M3.33984 10L12.0001 15" stroke="url(#paint5_linear_11_147)" stroke-width="4" stroke-linecap="round" stroke-linejoin="round"/>
<path d="M12.0005 5L3.34023 10" stroke="url(#paint6_linear_11_147)" stroke-width="4" stroke-linecap="round" stroke-linejoin="round"/>
<mask id="mask1_11_147" style="mask-type:alpha" maskUnits="userSpaceOnUse" x="9" y="2" width="7" height="8">
<rect x="9" y="2" width="7" height="8" fill="#D9D9D9"/>
</mask>
<g mask="url(#mask1_11_147)">
<path d="M12 5V15" stroke="url(#paint7_linear_11_147)" stroke-width="4" stroke-linecap="round" stroke-linejoin="round"/>
</g>
</g>
<defs>
<linearGradient id="paint0_linear_11_147" x1="12.5" y1="5" x2="12.5" y2="15" gradientUnits="userSpaceOnUse">
<stop stop-color="#00CEC0"/>
<stop offset="1" stop-color="#00BEB1"/>
</linearGradient>
<linearGradient id="paint1_linear_11_147" x1="3.58984" y1="9.56699" x2="12.2501" y2="14.567" gradientUnits="userSpaceOnUse">
<stop stop-color="#00BEB1"/>
<stop offset="1" stop-color="#00CEC0"/>
</linearGradient>
<linearGradient id="paint2_linear_11_147" x1="12.2505" y1="5.43301" x2="3.59023" y2="10.433" gradientUnits="userSpaceOnUse">
<stop stop-color="#00BEB1"/>
<stop offset="1" stop-color="#00CEC0"/>
</linearGradient>
<linearGradient id="paint3_linear_11_147" x1="12.5" y1="5" x2="12.5" y2="15" gradientUnits="userSpaceOnUse">
<stop stop-color="#00CEC0"/>
<stop offset="1" stop-color="#00BEB1"/>
</linearGradient>
<linearGradient id="paint4_linear_11_147" x1="12.5" y1="5" x2="12.5" y2="15" gradientUnits="userSpaceOnUse">
<stop stop-color="#00CEC0"/>
<stop offset="1" stop-color="#00BEB1"/>
</linearGradient>
<linearGradient id="paint5_linear_11_147" x1="3.58984" y1="9.56699" x2="12.2501" y2="14.567" gradientUnits="userSpaceOnUse">
<stop stop-color="#00BEB1"/>
<stop offset="1" stop-color="#00CEC0"/>
</linearGradient>
<linearGradient id="paint6_linear_11_147" x1="12.2505" y1="5.43301" x2="3.59023" y2="10.433" gradientUnits="userSpaceOnUse">
<stop stop-color="#00BEB1"/>
<stop offset="1" stop-color="#00CEC0"/>
</linearGradient>
<linearGradient id="paint7_linear_11_147" x1="12.5" y1="5" x2="12.5" y2="15" gradientUnits="userSpaceOnUse">
<stop stop-color="#00CEC0"/>
<stop offset="1" stop-color="#00BEB1"/>
</linearGradient>
<clipPath id="clip0_11_147">
<rect width="85" height="20" fill="white"/>
</clipPath>
</defs>
</svg>
