<svg width="20" height="20" viewBox="0 0 20 20" fill="none" xmlns="http://www.w3.org/2000/svg">
<path d="M10 20C15.5228 20 20 15.5228 20 10C20 4.47715 15.5228 0 10 0C4.47715 0 0 4.47715 0 10C0 15.5228 4.47715 20 10 20Z" fill="#FFC84D"/>
<path d="M7.38403 9.49779C8.05119 9.49779 8.59203 8.95695 8.59203 8.28979C8.59203 7.62263 8.05119 7.08179 7.38403 7.08179C6.71687 7.08179 6.17603 7.62263 6.17603 8.28979C6.17603 8.95695 6.71687 9.49779 7.38403 9.49779Z" fill="black"/>
<path d="M12.616 9.49779C13.2832 9.49779 13.824 8.95695 13.824 8.28979C13.824 7.62263 13.2832 7.08179 12.616 7.08179C11.9489 7.08179 11.408 7.62263 11.408 8.28979C11.408 8.95695 11.9489 9.49779 12.616 9.49779Z" fill="black"/>
<path d="M10 12.8955C7.93944 12.8955 6.66572 13.6806 5.92344 14.4189C5.70572 14.6355 5.35429 14.3703 5.50229 14.1012C6.22915 12.7812 7.76744 11.4355 9.99944 11.4355C12.2314 11.4355 13.7697 12.7812 14.4966 14.1012C14.6446 14.3703 14.2937 14.6361 14.0754 14.4189C13.3332 13.6806 12.06 12.8955 9.99886 12.8955H10Z" fill="#FF6D00"/>
</svg>
